<?xml version="1.0" encoding="utf-8"?>
<!-- Generator: Adobe Illustrator 22.1.0, SVG Export Plug-In . SVG Version: 6.00 Build 0)  -->
<svg version="1.1" id="Capa_1" xmlns="http://www.w3.org/2000/svg" xmlns:xlink="http://www.w3.org/1999/xlink" x="0px" y="0px"
	 viewBox="0 0 512 512" style="enable-background:new 0 0 512 512;" xml:space="preserve">
<style type="text/css">
	.st0{fill:#7D8798;}
</style>
<g>
	<g>
		<path class="st0" d="M502,469h-30V90c0-5.5-4.5-10-10-10h-83c-5.5,0-10,4.5-10,10v379h-40V173c0-5.5-4.5-10-10-10h-83
			c-5.5,0-10,4.5-10,10v296h-40V253c0-5.5-4.5-10-10-10H93c-5.5,0-10,4.5-10,10v216H40V50c0-5.5-4.5-10-10-10s-10,4.5-10,10v10H10
			C4.5,60,0,64.5,0,70s4.5,10,10,10h10v63H10c-5.5,0-10,4.5-10,10s4.5,10,10,10h10v60H10c-5.5,0-10,4.5-10,10s4.5,10,10,10h10v60H10
			c-5.5,0-10,4.5-10,10s4.5,10,10,10h10v63H10c-5.5,0-10,4.5-10,10s4.5,10,10,10h10v63H10c-5.5,0-10,4.5-10,10s4.5,10,10,10h10v13
			c0,5.5,4.5,10,10,10s10-4.5,10-10v-13h63v13c0,5.5,4.5,10,10,10s10-4.5,10-10v-13h63v13c0,5.5,4.5,10,10,10s10-4.5,10-10v-13h60
			v13c0,5.5,4.5,10,10,10s10-4.5,10-10v-13h63v13c0,5.5,4.5,10,10,10s10-4.5,10-10v-13h63v13c0,5.5,4.5,10,10,10s10-4.5,10-10v-13
			h50c5.5,0,10-4.5,10-10S507.5,469,502,469z"/>
	</g>
</g>
</svg>
