<?xml version="1.0" encoding="utf-8"?>
<!-- Generator: Adobe Illustrator 22.1.0, SVG Export Plug-In . SVG Version: 6.00 Build 0)  -->
<svg version="1.1" id="Layer_1" xmlns="http://www.w3.org/2000/svg" xmlns:xlink="http://www.w3.org/1999/xlink" x="0px" y="0px"
	 viewBox="0 0 512 512" style="enable-background:new 0 0 512 512;" xml:space="preserve">
<style type="text/css">
	.st0{fill:#7D8798;}
</style>
<g>
	<g>
		<g>
			<path class="st0" d="M499.5,279.2h-106c-4.9,0-9.1,3.3-10.2,8c-14.3,58.5-66.5,99.4-126.9,99.4c-1.5,0-3,0-4.9-0.1
				c-2.8-0.1-5.6,1-7.7,2.9c-2.1,2-3.2,4.7-3.2,7.6v104.3c0,5.7,4.6,10.4,10.3,10.5c1.8,0,3.7,0.1,5.5,0.1
				c62.2,0,122.2-22.6,168.9-63.6c46.3-40.7,76.3-96.5,84.7-157.2c0.4-3-0.5-6.1-2.5-8.4S502.5,279.2,499.5,279.2z"/>
			<path class="st0" d="M195.3,11.5c-2.6-2-6.1-2.6-9.2-1.7c-52.5,15-99.7,47.2-133,90.7C18.5,145.4,0.3,199.2,0.3,256
				S18.5,366.6,53,411.5c33.3,43.5,80.6,75.7,133,90.7c1,0.3,1.9,0.4,2.9,0.4c2.3,0,4.5-0.7,6.3-2.1c2.6-2,4.2-5.1,4.2-8.4v-112
				c0-3.9-2.1-7.4-5.5-9.3c-42.1-22.9-68.2-66.9-68.2-114.8s26.2-91.9,68.2-114.8c3.4-1.8,5.5-5.4,5.5-9.3v-112
				C199.4,16.6,197.9,13.5,195.3,11.5z"/>
			<path class="st0" d="M251.4,125.5c1.9-0.1,3.4-0.1,4.9-0.1c65.6,0,121.4,49,129.6,114c0.7,5.3,5.1,9.2,10.5,9.2h104.8
				c2.9,0,5.7-1.2,7.7-3.4c2-2.1,3-5,2.8-7.9c-4.6-64.4-33.3-124.2-80.6-168.4C383.5,24.5,321.5,0,256.3,0c-1.8,0-3.7,0-5.5,0.1
				c-5.7,0.1-10.3,4.8-10.3,10.5v104.3c0,2.9,1.2,5.6,3.2,7.6C245.8,124.5,248.6,125.6,251.4,125.5z"/>
		</g>
	</g>
</g>
</svg>
