<?xml version="1.0" encoding="utf-8"?>
<!-- Generator: Adobe Illustrator 22.1.0, SVG Export Plug-In . SVG Version: 6.00 Build 0)  -->
<svg version="1.1" id="Layer_1" xmlns="http://www.w3.org/2000/svg" xmlns:xlink="http://www.w3.org/1999/xlink" x="0px" y="0px"
	 viewBox="0 0 512 512" style="enable-background:new 0 0 512 512;" xml:space="preserve">
<style type="text/css">
	.st0{fill:#7D8798;}
</style>
<path class="st0" d="M504.3,395.2L422.9,324c-5.8-5-14.5-4.8-19.9,0.7l-43.9,43.9l-30.3-98.5l22.3-17.3l41.7,41.7
	c3.4,3.4,8.3,4.9,13,4c4.7-0.9,8.7-4,10.7-8.4l81.4-183c3.3-7.4-0.1-16-7.4-19.3c-3.6-1.6-7.5-1.7-11.2-0.3
	c-3.6,1.4-6.5,4.1-8.1,7.7l-72.7,163.6L362.6,223c-5.2-5.2-13.5-5.7-19.3-1.2l-23.7,18.4l-34.7-112.9c-1.7-5.6-6.7-9.7-12.5-10.2
	c-5.9-0.6-11.5,2.4-14.3,7.6l-48.3,89.6l-39.2-50.9c-2.7-3.5-6.7-5.6-11.2-5.7c-4.4-0.1-8.6,1.8-11.4,5L32.6,295.9v44.6l125.8-145.1
	l36.2,47.1l-74.8,138.9H32.6v29.2h96c5.4,0,10.3-2.9,12.9-7.7l72.7-135.1l35,45.5c2.4,3.1,5.9,5.1,9.7,5.6c3.8,0.5,7.8-0.6,10.8-3
	l34.4-26.8l34.2,111.1c1.5,4.9,5.5,8.7,10.4,9.9c4.9,1.2,10.2-0.2,13.8-3.8L414,355l71.1,62.2c2.7,2.3,6.1,3.6,9.6,3.6
	c4.2,0,8.2-1.8,11-5C511,409.7,510.4,400.5,504.3,395.2z M295,259.4l-31.6,24.6l-34.1-44.3l37.9-70.4L295,259.4z"/>
<g>
	<path class="st0" d="M21.3,329.3v-32.6v-77.2V16c0-5.9-4.8-10.7-10.7-10.7S0,10.1,0,16v480c0,5.9,4.8,10.7,10.7,10.7h480
		c5.9,0,10.7-4.8,10.7-10.7s-4.8-10.7-10.7-10.7H21.3V463v-52.3v-21.3V329.3z"/>
</g>
</svg>
